<?xml version="1.0" standalone="no"?>
<!DOCTYPE svg PUBLIC "-//W3C//DTD SVG 20010904//EN"
 "http://www.w3.org/TR/2001/REC-SVG-20010904/DTD/svg10.dtd">
<svg version="1.0" xmlns="http://www.w3.org/2000/svg"
 width="300.000000pt" height="282.000000pt" viewBox="0 0 300.000000 282.000000"
 preserveAspectRatio="xMidYMid meet">
<metadata>
Created by potrace 1.10, written by Peter Selinger 2001-2011
</metadata>
<g transform="translate(0.000000,282.000000) scale(0.100000,-0.100000)"
fill="#000000" stroke="none">
<path d="M1465 2634 c-405 -55 -811 -246 -1088 -513 -175 -169 -274 -344 -280
-496 -1 -27 -1 -256 1 -508 l2 -458 99 85 c297 256 608 449 746 463 81 9 89
-2 82 -107 -3 -47 -18 -125 -33 -175 -84 -279 -85 -416 -6 -568 94 -181 303
-270 632 -270 218 0 445 36 696 109 l52 15 -6 107 c-9 200 33 403 123 587 69
144 141 228 274 325 155 111 196 182 194 330 -3 252 -261 602 -720 978 -42 35
-69 47 -145 66 -184 47 -418 58 -623 30z m515 -184 c25 -6 62 -15 82 -21 76
-20 389 -310 526 -488 91 -118 145 -208 171 -288 44 -132 23 -192 -101 -279
-282 -197 -444 -517 -473 -936 l-7 -98 -36 -9 c-177 -46 -428 -76 -582 -68
-229 12 -366 73 -424 189 -22 45 -26 65 -26 144 0 77 6 114 40 231 82 288 76
423 -23 510 -70 61 -163 69 -298 23 -137 -46 -267 -118 -457 -255 -50 -36 -93
-65 -97 -65 -3 0 -5 134 -5 298 0 278 1 302 21 361 111 327 679 693 1180 760
93 12 449 6 509 -9z"/>
</g>
</svg>
