<?xml version="1.0" standalone="no"?>
<!DOCTYPE svg PUBLIC "-//W3C//DTD SVG 20010904//EN"
 "http://www.w3.org/TR/2001/REC-SVG-20010904/DTD/svg10.dtd">
<svg version="1.0" xmlns="http://www.w3.org/2000/svg"
 width="363.000000pt" height="341.000000pt" viewBox="0 0 363.000000 341.000000"
 preserveAspectRatio="xMidYMid meet">

<g transform="translate(0.000000,341.000000) scale(0.100000,-0.100000)"
fill="#000000" stroke="none">
<path d="M1735 3180 c-292 -44 -550 -132 -800 -271 -431 -240 -701 -516 -795
-814 -21 -69 -22 -77 -20 -680 0 -335 2 -610 3 -611 1 -1 49 38 107 87 359
306 692 519 883 566 86 21 117 12 131 -36 14 -50 -7 -195 -49 -333 -52 -172
-66 -251 -66 -373 0 -125 14 -184 67 -286 180 -343 774 -423 1553 -207 l114
31 -6 96 c-18 309 69 653 226 886 55 82 177 201 267 262 143 97 202 182 222
320 9 65 8 91 -5 156 -31 151 -120 320 -266 505 -139 177 -526 549 -661 635
-34 21 -168 54 -293 72 -146 21 -459 18 -612 -5z m565 -204 c200 -27 222 -36
345 -139 434 -363 715 -740 715 -958 0 -103 -16 -126 -157 -226 -252 -178
-423 -443 -507 -783 -29 -118 -56 -311 -56 -400 l0 -58 -87 -20 c-223 -51
-396 -73 -588 -73 -359 0 -556 90 -611 279 -24 80 -14 228 21 347 73 241 79
274 80 410 0 118 -2 134 -24 175 -30 58 -66 97 -116 123 -59 32 -202 31 -305
-2 -148 -49 -391 -188 -608 -348 l-73 -54 3 388 3 388 47 95 c202 411 846 790
1458 859 120 13 346 12 460 -3z"/>
</g>
</svg>
